<svg width="29" height="29" viewBox="0 0 29 29" fill="none" xmlns="http://www.w3.org/2000/svg">
<circle cx="14.5" cy="14.5" r="14.5" fill="white"/>
<path d="M20.2246 10.5747H6.83521C5.98071 10.5747 5.38475 10.9967 5.04733 11.8418L3.36462 18.2388H5.39242L5.61481 17.426C5.86787 16.4972 6.77496 15.9746 7.81351 15.9746H8.56613L9.84897 14.0902H6.50875L6.89656 12.5182C6.92176 12.4617 6.95572 12.4163 7.00173 12.3819C7.05103 12.3476 7.09814 12.3304 7.14305 12.3304L12.9591 12.3193L11.3323 18.2388H13.2987L14.9015 12.3193H19.7557L20.2246 10.5757V10.5747Z" fill="#C92D36"/>
<path d="M22.2535 10.5747H20.9389L20.47 12.3193H21.7846L22.2535 10.5747Z" fill="#C92D36"/>
<path d="M22.4354 12.3193H23.3961L23.8639 10.5747H22.9031L22.4354 12.3193Z" fill="#C92D36"/>
<path d="M24.5147 10.5747L24.0458 12.3193H24.5267L24.9945 10.5747H24.5147Z" fill="#C92D36"/>
<path d="M18.7522 16.3624C18.703 16.3099 18.6843 16.2474 18.6964 16.1747L19.3778 13.5547H17.3434L16.6434 16.2312C16.5492 16.7047 16.6598 17.1449 16.9764 17.5518C17.293 17.9587 17.7696 18.1737 18.4061 18.1969H23.3008C23.4695 17.5649 23.6229 16.9813 23.7631 16.4473L18.9429 16.4412C18.8651 16.4412 18.8015 16.4149 18.7512 16.3614L18.7522 16.3624Z" fill="#C92D36"/>
</svg>
