<svg width="299" height="58" viewBox="0 0 299 58" fill="none" xmlns="http://www.w3.org/2000/svg">
<path d="M166.086 0.352356V3.31342H158.072V8.59266H165.812V11.5537H158.072V19.2006H154.948V0.352356H166.086Z" fill="#1D1D1D"/>
<path d="M169.291 19.2006V0.352356H172.416V19.2006H169.291Z" fill="#1D1D1D"/>
<path d="M190.75 19.2006H187.327L183.304 12.3326H179.612V19.2006H176.488V0.352356H184.096C185.799 0.352356 187.239 0.945806 188.418 2.13271C189.615 3.28252 190.214 4.71051 190.214 6.41667C190.214 7.62212 189.865 8.71629 189.166 9.71774C188.468 10.713 187.557 11.4363 186.435 11.8875L190.757 19.2129L190.75 19.2006ZM184.096 3.25779H179.612V9.55701H184.096C184.926 9.55701 185.637 9.25411 186.217 8.64211C186.797 8.03012 187.083 7.2883 187.083 6.40431C187.083 5.52032 186.797 4.7785 186.217 4.16651C185.637 3.55451 184.932 3.25161 184.096 3.25161V3.25779Z" fill="#1D1D1D"/>
<path d="M196.538 11.1457V16.2333H204.957V19.1944H193.413V0.352356H204.826V3.31342H196.538V8.21557H204.146V11.1519H196.538V11.1457Z" fill="#1D1D1D"/>
<path d="M213.382 0.352356H227.239V3.31342H221.888V19.2006H218.764V3.31342H213.388V0.352356H213.382Z" fill="#1D1D1D"/>
<path d="M244.077 19.2006H240.653L236.631 12.3326H232.939V19.2006H229.815V0.352356H237.423C239.125 0.352356 240.566 0.945806 241.745 2.13271C242.942 3.28252 243.541 4.71051 243.541 6.41667C243.541 7.62212 243.191 8.71629 242.493 9.71774C241.795 10.713 240.884 11.4363 239.761 11.8875L244.083 19.2129L244.077 19.2006ZM237.423 3.25779H232.939V9.55701H237.423C238.252 9.55701 238.963 9.25411 239.543 8.64211C240.123 8.03012 240.41 7.2883 240.41 6.40431C240.41 5.52032 240.123 4.7785 239.543 4.16651C238.963 3.55451 238.259 3.25161 237.423 3.25161V3.25779Z" fill="#1D1D1D"/>
<path d="M246.384 12.9508V0.352356H249.509V12.7654C249.509 13.9337 249.858 14.8548 250.556 15.5224C251.255 16.1962 252.265 16.5301 253.587 16.5301C254.909 16.5301 255.92 16.1962 256.618 15.5224C257.317 14.8486 257.666 13.9275 257.666 12.7654V0.352356H260.79V12.9508C260.79 14.9413 260.117 16.5486 258.782 17.7726C257.46 18.9595 255.733 19.5529 253.594 19.5529C251.455 19.5529 249.727 18.9595 248.405 17.7726C247.064 16.5548 246.397 14.9475 246.397 12.9508H246.384Z" fill="#1D1D1D"/>
<path d="M273.631 19.5468C270.768 19.5468 268.399 18.6133 266.515 16.7464C264.632 14.8424 263.69 12.5181 263.69 9.77338C263.69 7.02868 264.632 4.69197 266.515 2.82507C268.38 0.93963 270.756 0 273.631 0C275.352 0 276.942 0.401815 278.395 1.21163C279.855 2.02144 280.99 3.11561 281.807 4.49415L279.088 6.05814C278.582 5.12469 277.84 4.38288 276.874 3.83888C275.907 3.2887 274.822 3.01671 273.625 3.01671C271.616 3.01671 269.964 3.65343 268.679 4.92687C267.432 6.18177 266.802 7.8014 266.802 9.77338C266.802 11.7454 267.426 13.365 268.679 14.6199C269.964 15.8933 271.61 16.5301 273.625 16.5301C274.822 16.5301 275.907 16.2581 276.886 15.7079C277.865 15.1577 278.595 14.4221 279.088 13.4886L281.807 15.0217C281.027 16.3879 279.898 17.4882 278.408 18.3351C276.98 19.1449 275.383 19.5468 273.625 19.5468H273.631Z" fill="#1D1D1D"/>
<path d="M291.042 9.53218L299 19.2005H295.277L287.781 10.2307V19.2005H284.656V0.352251H287.781V8.80273L295.009 0.346069H298.732L291.042 9.526V9.53218Z" fill="#1D1D1D"/>
<path d="M163.941 47.9273C161.078 47.9273 158.708 46.9939 156.825 45.127C154.942 43.223 154 40.8986 154 38.1539C154 35.4092 154.942 33.0725 156.825 31.2056C158.69 29.3202 161.066 28.3806 163.941 28.3806C165.662 28.3806 167.252 28.7824 168.705 29.5922C170.164 30.402 171.299 31.4962 172.116 32.8747L169.397 34.4387C168.892 33.5052 168.15 32.7634 167.184 32.2194C166.217 31.6693 165.132 31.3973 163.934 31.3973C161.926 31.3973 160.274 32.034 158.989 33.3074C157.742 34.5623 157.112 36.182 157.112 38.1539C157.112 40.1259 157.736 41.7455 158.989 43.0004C160.274 44.2739 161.92 44.9106 163.934 44.9106C165.132 44.9106 166.217 44.6386 167.196 44.0884C168.175 43.5383 168.905 42.8026 169.397 41.8692L172.116 43.4023C171.337 44.7684 170.208 45.8688 168.718 46.7157C167.29 47.5255 165.693 47.9273 163.934 47.9273H163.941Z" fill="#1D1D1D"/>
<path d="M178.091 39.5262V44.6138H186.51V47.5748H174.966V28.7266H186.379V31.6877H178.091V36.5898H185.699V39.5262H178.091Z" fill="#1D1D1D"/>
<path d="M201.047 41.523V28.7329H204.171V47.5811H201.726L192.759 34.791V47.5811H189.634V28.7329H192.079L201.047 41.523Z" fill="#1D1D1D"/>
<path d="M206.753 28.7329H220.61V31.694H215.259V47.5811H212.135V31.694H206.759V28.7329H206.753Z" fill="#1D1D1D"/>
<path d="M226.31 39.5262V44.6138H234.729V47.5748H223.185V28.7266H234.598V31.6877H226.31V36.5898H233.918V39.5262H226.31Z" fill="#1D1D1D"/>
<path d="M252.116 47.5811H248.692L244.669 40.7132H240.978V47.5811H237.853V28.7329H245.461C247.164 28.7329 248.605 29.3264 249.783 30.5133C250.981 31.6631 251.579 33.0911 251.579 34.7972C251.579 36.0027 251.23 37.0968 250.532 38.0983C249.833 39.0936 248.923 39.8168 247.8 40.2681L252.122 47.5935L252.116 47.5811ZM245.461 31.6383H240.978V37.9376H245.461C246.291 37.9376 247.002 37.6347 247.582 37.0227C248.162 36.4107 248.449 35.6689 248.449 34.7849C248.449 33.9009 248.162 33.1591 247.582 32.5471C247.002 31.9351 246.297 31.6322 245.461 31.6322V31.6383Z" fill="#1D1D1D"/>
<path d="M105.229 0.991272H21.6613C16.328 0.991272 12.6084 3.62527 10.5024 8.89958L0 48.8255H12.6563L14.0443 43.7529C15.6237 37.9555 21.2852 34.694 27.7672 34.694H32.4645L40.4713 22.9329H19.6237L22.0442 13.1215C22.2014 12.7687 22.4134 12.4851 22.7006 12.2709C23.0083 12.0566 23.3023 11.9495 23.5826 11.9495L59.883 11.8802L49.7293 48.8255H62.0026L72.0059 11.8802H102.303L105.229 0.997573V0.991272Z" fill="#C92D36"/>
<path d="M117.893 0.991272H109.688L106.761 11.8802H114.966L117.893 0.991272Z" fill="#C92D36"/>
<path d="M119.028 11.8802H125.024L127.944 0.991272H121.947L119.028 11.8802Z" fill="#C92D36"/>
<path d="M132.005 0.991272L129.079 11.8802H132.08L135 0.991272H132.005Z" fill="#C92D36"/>
<path d="M96.0398 37.1155C95.7321 36.7878 95.6158 36.3971 95.6911 35.9434L99.944 19.5912H87.2467L82.8775 36.2963C82.2895 39.2517 82.9801 41.9991 84.9562 44.5386C86.9322 47.0781 89.9065 48.4203 93.8791 48.5652H124.429C125.482 44.6205 126.439 40.9783 127.315 37.6448L97.2295 37.607C96.744 37.607 96.3475 37.4432 96.0329 37.1092L96.0398 37.1155Z" fill="#C92D36"/>
<ellipse cx="27.6885" cy="49.1963" rx="8.88121" ry="8.80357" fill="#1D1D1D"/>
</svg>
